<svg id="icon-blacklist" xmlns="http://www.w3.org/2000/svg" width="34.848" height="32.174" viewBox="0 0 34.848 32.174">
  <path id="Path_4" data-name="Path 4" d="M10.082,0A3.962,3.962,0,0,0,6.105,3.933L5.961,24.32l2.17.016.144-20.4a1.792,1.792,0,0,1,1.807-1.771h21.8V0h-21.8Z" transform="translate(-1.153)" fill="#9eabb2"/>
  <path id="Path_5" data-name="Path 5" d="M30.727,0a4.125,4.125,0,0,0-4.121,4.121V27a3,3,0,1,1-6,0V24.366a1.084,1.084,0,0,0-1.084-1.085H1.085A1.084,1.084,0,0,0,0,24.366V27a5.176,5.176,0,0,0,5.17,5.169V30a3,3,0,0,1-3-3V25.449H18.436V27a5.17,5.17,0,0,0,10.339,0V10.049h4.988a1.085,1.085,0,0,0,1.085-1.085V4.121A4.125,4.125,0,0,0,30.727,0Zm1.952,7.88h-3.9V4.121a1.952,1.952,0,1,1,3.9,0Z" fill="#9eabb2"/>
  <path id="Path_6" data-name="Path 6" d="M6.14,31.452h18.4v2.169H6.14ZM17.311,7.485h-5.6a1.085,1.085,0,1,0,0,2.17h5.6a1.085,1.085,0,0,0,0-2.17Zm6.506,4.338H11.708a1.085,1.085,0,1,0,0,2.17H23.817a1.085,1.085,0,0,0,0-2.17Zm0,4.338H11.708a1.085,1.085,0,1,0,0,2.17H23.817a1.085,1.085,0,1,0,0-2.17Zm0,4.338H11.708a1.085,1.085,0,1,0,0,2.17H23.817a1.085,1.085,0,0,0,0-2.17Z" transform="translate(-1.188 -1.448)" fill="#9eabb2"/>
</svg>
